<mxfile host="Electron" agent="Mozilla/5.0 (Windows NT 10.0; Win64; x64) AppleWebKit/537.36 (KHTML, like Gecko) draw.io/28.0.6 Chrome/138.0.7204.100 Electron/37.2.3 Safari/537.36" version="28.0.6">
  <diagram name="Page-1" id="ipTBL6zYeQ7dOaKSnV9b">
    <mxGraphModel dx="1126" dy="745" grid="1" gridSize="10" guides="1" tooltips="1" connect="1" arrows="1" fold="1" page="1" pageScale="1" pageWidth="1100" pageHeight="850" math="0" shadow="0">
      <root>
        <mxCell id="0" />
        <mxCell id="1" parent="0" />
        <mxCell id="A5N2KGsoCs6YVnIseVir-1" value="&lt;b&gt;&lt;font style=&quot;font-size: 14px;&quot;&gt;Mini CPU Machine Model&lt;/font&gt;&lt;/b&gt;" style="text;html=1;align=center;verticalAlign=middle;whiteSpace=wrap;rounded=0;" parent="1" vertex="1">
          <mxGeometry x="425" y="180" width="270" height="30" as="geometry" />
        </mxCell>
        <mxCell id="A5N2KGsoCs6YVnIseVir-2" value="" style="rounded=0;whiteSpace=wrap;html=1;fillColor=#CC99FF;" parent="1" vertex="1">
          <mxGeometry x="500" y="320" width="120" height="120" as="geometry" />
        </mxCell>
        <mxCell id="A5N2KGsoCs6YVnIseVir-3" value="&lt;b&gt;Mini CPU&lt;/b&gt;" style="text;html=1;align=center;verticalAlign=middle;whiteSpace=wrap;rounded=0;" parent="1" vertex="1">
          <mxGeometry x="530" y="365" width="60" height="30" as="geometry" />
        </mxCell>
        <mxCell id="A5N2KGsoCs6YVnIseVir-4" value="" style="rounded=0;whiteSpace=wrap;html=1;dashed=1;" parent="1" vertex="1">
          <mxGeometry x="240" y="320" width="120" height="120" as="geometry" />
        </mxCell>
        <mxCell id="A5N2KGsoCs6YVnIseVir-5" value="&lt;b&gt;Instruction&lt;/b&gt;&lt;div&gt;&lt;br&gt;&lt;div&gt;&lt;b&gt;Memory&lt;/b&gt;&lt;/div&gt;&lt;/div&gt;" style="text;html=1;align=center;verticalAlign=middle;whiteSpace=wrap;rounded=0;" parent="1" vertex="1">
          <mxGeometry x="270" y="370" width="60" height="20" as="geometry" />
        </mxCell>
        <mxCell id="A5N2KGsoCs6YVnIseVir-6" value="0x00" style="text;html=1;align=right;verticalAlign=middle;whiteSpace=wrap;rounded=0;" parent="1" vertex="1">
          <mxGeometry x="170" y="410" width="60" height="30" as="geometry" />
        </mxCell>
        <mxCell id="A5N2KGsoCs6YVnIseVir-7" value="0xFF" style="text;html=1;align=right;verticalAlign=middle;whiteSpace=wrap;rounded=0;" parent="1" vertex="1">
          <mxGeometry x="170" y="320" width="60" height="30" as="geometry" />
        </mxCell>
        <mxCell id="A5N2KGsoCs6YVnIseVir-8" value="" style="rounded=0;whiteSpace=wrap;html=1;dashed=1;" parent="1" vertex="1">
          <mxGeometry x="760" y="320" width="120" height="120" as="geometry" />
        </mxCell>
        <mxCell id="A5N2KGsoCs6YVnIseVir-9" value="&lt;b&gt;Data&lt;/b&gt;&lt;div&gt;&lt;b&gt;&lt;br&gt;&lt;/b&gt;&lt;/div&gt;&lt;div&gt;&lt;b&gt;Memory&lt;/b&gt;&lt;/div&gt;" style="text;html=1;align=center;verticalAlign=middle;whiteSpace=wrap;rounded=0;" parent="1" vertex="1">
          <mxGeometry x="790" y="370" width="60" height="20" as="geometry" />
        </mxCell>
        <mxCell id="A5N2KGsoCs6YVnIseVir-10" value="0x00" style="text;html=1;align=left;verticalAlign=middle;whiteSpace=wrap;rounded=0;" parent="1" vertex="1">
          <mxGeometry x="890" y="410" width="60" height="30" as="geometry" />
        </mxCell>
        <mxCell id="A5N2KGsoCs6YVnIseVir-11" value="0xFF" style="text;html=1;align=left;verticalAlign=middle;whiteSpace=wrap;rounded=0;" parent="1" vertex="1">
          <mxGeometry x="890" y="320" width="60" height="30" as="geometry" />
        </mxCell>
        <mxCell id="A5N2KGsoCs6YVnIseVir-12" value="" style="endArrow=classic;startArrow=classic;html=1;rounded=0;strokeWidth=3;fillColor=#e51400;strokeColor=#B20000;" parent="1" edge="1">
          <mxGeometry width="50" height="50" relative="1" as="geometry">
            <mxPoint x="620" y="400" as="sourcePoint" />
            <mxPoint x="760" y="400" as="targetPoint" />
          </mxGeometry>
        </mxCell>
        <mxCell id="A5N2KGsoCs6YVnIseVir-13" value="" style="endArrow=classic;startArrow=none;html=1;rounded=0;entryX=0;entryY=0.5;entryDx=0;entryDy=0;startFill=0;strokeWidth=3;fillColor=#e51400;strokeColor=#B20000;" parent="1" edge="1">
          <mxGeometry width="50" height="50" relative="1" as="geometry">
            <mxPoint x="360" y="400" as="sourcePoint" />
            <mxPoint x="500" y="400" as="targetPoint" />
          </mxGeometry>
        </mxCell>
        <mxCell id="A5N2KGsoCs6YVnIseVir-14" value="" style="endArrow=classic;html=1;rounded=0;entryX=0.5;entryY=0;entryDx=0;entryDy=0;" parent="1" target="A5N2KGsoCs6YVnIseVir-2" edge="1">
          <mxGeometry width="50" height="50" relative="1" as="geometry">
            <mxPoint x="560" y="280" as="sourcePoint" />
            <mxPoint x="565" y="320" as="targetPoint" />
          </mxGeometry>
        </mxCell>
        <mxCell id="A5N2KGsoCs6YVnIseVir-15" value="" style="endArrow=classic;html=1;rounded=0;entryX=0.5;entryY=0;entryDx=0;entryDy=0;" parent="1" edge="1">
          <mxGeometry width="50" height="50" relative="1" as="geometry">
            <mxPoint x="559.5" y="440" as="sourcePoint" />
            <mxPoint x="559.5" y="480" as="targetPoint" />
          </mxGeometry>
        </mxCell>
        <mxCell id="A5N2KGsoCs6YVnIseVir-16" value="Output" style="text;html=1;align=center;verticalAlign=middle;whiteSpace=wrap;rounded=0;" parent="1" vertex="1">
          <mxGeometry x="530" y="480" width="60" height="30" as="geometry" />
        </mxCell>
        <mxCell id="A5N2KGsoCs6YVnIseVir-17" value="Input" style="text;html=1;align=center;verticalAlign=middle;whiteSpace=wrap;rounded=0;" parent="1" vertex="1">
          <mxGeometry x="530" y="250" width="60" height="30" as="geometry" />
        </mxCell>
        <mxCell id="A5N2KGsoCs6YVnIseVir-18" value="" style="endArrow=classic;html=1;rounded=0;entryX=1.008;entryY=0.333;entryDx=0;entryDy=0;entryPerimeter=0;strokeWidth=3;fillColor=#008a00;strokeColor=#005700;" parent="1" target="A5N2KGsoCs6YVnIseVir-4" edge="1">
          <mxGeometry width="50" height="50" relative="1" as="geometry">
            <mxPoint x="500" y="360" as="sourcePoint" />
            <mxPoint x="420" y="300" as="targetPoint" />
          </mxGeometry>
        </mxCell>
        <mxCell id="A5N2KGsoCs6YVnIseVir-19" value="" style="endArrow=classic;html=1;rounded=0;strokeWidth=3;fillColor=#008a00;strokeColor=#005700;" parent="1" edge="1">
          <mxGeometry width="50" height="50" relative="1" as="geometry">
            <mxPoint x="620" y="360" as="sourcePoint" />
            <mxPoint x="760" y="360" as="targetPoint" />
          </mxGeometry>
        </mxCell>
      </root>
    </mxGraphModel>
  </diagram>
</mxfile>
